<svg width="1000" height="1000" viewBox="0 0 1000 1000" fill="none" xmlns="http://www.w3.org/2000/svg">
<circle cx="250" cy="250" r="250" fill="#F8C210"/>
<path d="M750 500C816.304 500 879.893 473.661 926.777 426.777C973.661 379.893 1000 316.304 1000 250C1000 183.696 973.661 120.107 926.777 73.2233C879.893 26.3392 816.304 -1.29739e-07 750 -1.38019e-05L750 250L750 500Z" fill="#F8C210"/>
<path d="M250 500C183.696 500 120.107 526.339 73.2234 573.223C26.3393 620.107 5.73929e-05 683.696 4.14056e-05 750C2.54183e-05 816.304 26.3392 879.893 73.2233 926.777C120.107 973.661 183.696 1000 250 1000L250 750L250 500Z" fill="#F8C210"/>
<path d="M500 500C566.304 500 629.893 473.661 676.777 426.777C723.661 379.893 750 316.304 750 250C750 183.696 723.661 120.107 676.777 73.2233C629.893 26.3392 566.304 -1.29739e-07 500 -1.38019e-05L500 250L500 500Z" fill="#F8C210"/>
<path d="M500 500C433.696 500 370.107 526.339 323.223 573.223C276.339 620.107 250 683.696 250 750C250 816.304 276.339 879.893 323.223 926.777C370.107 973.661 433.696 1000 500 1000L500 750L500 500Z" fill="#F8C210"/>
<circle cx="750" cy="750" r="250" fill="#F8C210"/>
</svg>
